<!-- icon666.com - MILLIONS OF FREE VECTOR ICONS --><svg version="1.1" id="Capa_1" xmlns="http://www.w3.org/2000/svg" xmlns:xlink="http://www.w3.org/1999/xlink" x="0px" y="0px" viewBox="0 0 511.687 511.687" style="enable-background:new 0 0 511.687 511.687;" xml:space="preserve"><path style="fill:#F2F2F2;" d="M509.677,126.023c-10.667-64-57.6-113.067-119.467-123.733c-35.2-6.4-68.267,1.067-96,17.067 c-24.533,13.867-53.333,13.867-77.867,0c-27.733-16-60.8-23.467-96-17.067c-60.8,10.667-108.8,59.733-118.4,123.733 c-8.533,54.4,11.733,105.6,46.933,137.6c19.2,18.133,30.933,43.733,30.933,71.467l0,0c0,54.4,11.733,103.467,32,145.067 c25.6,51.2,101.333,35.2,105.6-23.467l3.2-53.333c1.067-21.333,4.267-41.6,8.533-62.933c2.133-9.6,8.533-18.133,17.067-20.267 c16-5.333,30.933,4.267,34.133,19.2c4.267,21.333,7.467,41.6,9.6,64l3.2,54.4c4.267,57.6,78.933,74.667,105.6,23.467 c21.333-40.533,33.067-91.733,33.067-146.133l0,0c0-27.733,11.733-53.333,30.933-71.467 C499.011,230.556,518.211,180.423,509.677,126.023z"></path><path style="fill:#FFFFFF;" d="M43.544,143.089c-1.067,0-1.067,0-2.133,0c-5.333-1.067-9.6-6.4-8.533-11.733 c8.533-50.133,44.8-88.533,92.8-97.067c18.133-3.2,36.267-2.133,54.4,4.267c5.333,2.133,8.533,7.467,6.4,13.867 c-2.133,5.333-7.467,8.533-13.867,6.4c-14.933-5.333-28.8-6.4-43.733-3.2c-39.467,6.4-69.333,37.333-75.733,78.933 C54.211,138.823,48.877,143.089,43.544,143.089z"></path></svg>