<svg viewBox="0 0 179 84" xmlns="http://www.w3.org/2000/svg" xmlns:xlink="http://www.w3.org/1999/xlink" width="179.000000" height="84.000000" fill="none" customFrame="#000000">
	<defs>
		<clipPath id="clipPath_3">
			<rect width="81.000000" height="84.000000" x="0.000000" y="0.000000" fill="rgb(255,255,255)" />
		</clipPath>
	</defs>
	<path id="" d="M102.302 21.3193Q105.021 21.3193 106.608 22.0713Q108.2 22.8184 109.021 23.7412Q109.68 24.498 110.1 25.4893Q110.52 26.4805 110.52 27.8623Q110.52 28.8779 110.061 29.9912Q109.602 31.0996 108.859 31.7783Q108.078 32.5205 107.39 32.9795Q106.701 33.4385 105.529 33.7314Q104.362 34.0195 102.561 34.0195Q101.198 34.0195 100.1 33.7119Q99.001 33.3994 99.001 32.6621Q99.001 32.3594 99.2695 32.1885Q99.5381 32.0176 99.8604 32.0176Q100.041 32.0176 100.1 32.042Q100.241 30.7188 100.241 29.2393Q100.241 27.5791 100.158 26.4902Q100.08 25.4014 99.9385 24.3223Q99.9189 24.1807 99.8506 23.541Q99.7822 22.9014 99.7822 22.2422Q99.7822 21.8223 100.202 21.5342Q100.622 21.2412 101.062 21.2412Q101.32 21.2412 101.76 21.2803Q102.121 21.3193 102.302 21.3193ZM102.038 32.1396Q102.521 32.2178 103.298 32.2178Q104.621 32.2178 105.798 31.6709Q106.979 31.1191 107.697 30.1328Q108.42 29.1416 108.42 27.8379Q108.42 26.4805 107.937 25.5234Q107.458 24.5615 106.462 23.9414Q105.72 23.4824 104.641 23.2725Q103.562 23.0576 102.038 23.0576Q102.038 23.541 102.102 24.2588Q102.102 24.498 102.141 25.0986Q102.258 27.418 102.258 28.8389Q102.258 30.8994 102.038 32.1396ZM115.259 33.1992Q115.259 33.541 115 33.7998Q114.741 34.0586 114.36 34.0586Q113.76 34.0586 113.476 33.8291Q113.198 33.5996 113.198 32.9795Q113.198 32.2422 113.159 31.041Q113.12 30.04 113.12 29.3613Q113.12 29.0391 113.159 28.5215Q113.198 28.0381 113.198 27.7988Q113.139 27.418 112.9 27.1689Q112.661 26.9199 112.28 26.9199Q112.099 26.9199 111.977 26.749Q111.86 26.5781 111.86 26.4023Q111.86 25.9385 112.231 25.6992Q112.602 25.46 113.12 25.46Q114.199 25.46 114.619 26.7393Q115.141 26.1387 115.81 25.7725Q116.479 25.4014 117.099 25.4014Q117.842 25.4014 118.452 25.8018Q119.062 26.2021 119.062 26.8809Q119.062 27.2617 118.73 27.6621Q118.398 28.0576 118.061 28.0576Q117.881 28.0576 117.749 27.9697Q117.622 27.8818 117.441 27.7012Q117.241 27.501 117.099 27.4131Q116.958 27.3203 116.782 27.3203Q116.46 27.3203 116.177 27.4229Q115.898 27.5205 115.801 27.6621Q115.478 28.1602 115.327 28.5605Q115.18 28.9609 115.18 29.4199Q115.18 29.7617 115.161 29.9619L115.141 31.0996Q115.141 31.3584 115.161 31.6807Q115.18 31.998 115.2 32.1592Q115.259 32.7012 115.259 33.1992ZM123.018 32.9014Q123.018 33.3994 122.618 33.8291Q122.222 34.2588 121.739 34.2588Q121.182 34.2588 120.718 33.9512Q120.259 33.6387 120.259 33.1602Q120.259 32.3984 120.547 32.042Q120.84 31.6807 121.421 31.6807Q122.1 31.6807 122.559 32.0127Q123.018 32.3398 123.018 32.9014ZM138.578 22.4424Q138.7 22.0225 138.939 21.7539Q139.178 21.4805 139.461 21.4805Q140.14 21.4805 140.438 21.7393Q140.741 21.998 140.741 22.6377Q140.741 22.8184 140.462 23.6582Q139.842 25.5576 139.1 28.3604Q138.919 29 138.807 29.4834Q138.7 29.9619 138.621 30.2793Q138.138 32.3398 137.782 33.3799Q137.66 33.6777 137.357 33.8486Q137.059 34.0195 136.722 34.0195Q136.38 34.0195 136.048 33.873Q135.721 33.7217 135.579 33.5215Q134.979 32.3398 134.056 29.8105Q133.138 27.2812 132.64 25.0205Q132.181 27.1787 131.649 28.9023Q131.121 30.6211 130.438 32.5205Q130.36 32.7598 130.277 32.9697Q130.199 33.1797 130.14 33.3799Q129.998 33.6777 129.74 33.8486Q129.481 34.0195 129.159 34.0195Q128.802 34.0195 128.46 33.873Q128.119 33.7217 128.001 33.5215Q127.738 33.082 127.45 32.1641Q127.162 31.2412 126.678 29.5811L126.18 27.8818Q125.658 26.2217 125.277 24.4834Q124.901 22.7402 124.901 22.3984Q124.901 21.9785 125.321 21.7295Q125.741 21.4805 126.161 21.4805Q126.4 21.4805 126.659 21.6318Q126.922 21.7783 127 22.1396Q127.699 25.8799 129.061 30.8213Q129.398 30.04 129.705 28.9707Q130.018 27.9014 130.56 25.958Q131.258 23.4189 131.62 22.3398Q131.698 22.042 132.03 21.8613Q132.362 21.6807 132.699 21.6807Q133.138 21.6807 133.416 21.9102Q133.7 22.1396 133.778 22.3984L133.939 23.0186Q134.559 25.3623 135.179 27.4033Q135.799 29.4395 136.439 30.8213Q136.839 29.6396 137.401 27.042L137.699 25.7188Q138.241 23.5996 138.578 22.4424ZM150.419 34.0586Q148.92 34.0586 148.402 32.9014Q148.138 32.3203 148.06 31.3926Q147.982 30.46 147.982 29.2002L147.982 28.5801Q147.982 27.1396 147.02 27.1396Q146.459 27.1396 145.897 27.7109Q145.341 28.2822 144.97 29.21Q144.598 30.1377 144.598 31.1387Q144.598 31.7979 144.662 32.3398Q144.701 33.0186 144.701 33.3799Q144.701 34.0586 143.759 34.0586Q143.3 34.0586 142.948 33.8584Q142.601 33.6582 142.601 33.3408Q142.679 32.3203 142.679 30.8213L142.66 28.1797Q142.66 27.54 142.562 23.4385L142.499 21.5977Q142.499 21.1582 142.899 20.8311Q143.3 20.499 143.798 20.499Q144.242 20.499 144.442 20.6992Q144.642 20.8994 144.642 21.3193Q144.642 21.8418 144.618 22.5303Q144.598 23.2188 144.579 23.5801Q144.52 24.6006 144.52 25.6211Q144.52 26.6221 144.481 27.1982Q145.082 26.3193 145.848 25.8896Q146.62 25.46 147.66 25.46Q148.422 25.46 149.071 26.1289Q149.721 26.7979 149.862 27.6621Q149.901 28.1016 149.901 28.9609L149.882 30.4209Q149.882 30.7578 149.921 31.4805Q149.94 31.8223 150.15 32.2031Q150.36 32.5791 150.638 32.7598Q150.902 32.9209 150.98 33.082Q151.058 33.2383 151.058 33.4385Q151.058 33.6387 150.878 33.8486Q150.702 34.0586 150.419 34.0586ZM153.5 21.1582Q154.198 21.2217 154.716 21.5342Q155.238 21.8418 155.238 22.4619Q155.238 22.9209 154.809 23.1895Q154.379 23.458 153.778 23.458Q153.202 23.458 152.978 23.1602Q152.758 22.8623 152.758 22.54Q152.758 21.9395 152.89 21.5391Q153.022 21.1387 153.5 21.1582ZM155.102 30.0205L155.102 30.6016Q155.102 31.3779 155.15 32.0713Q155.199 32.7598 155.282 33.458Q155.258 33.6582 154.98 33.8682Q154.701 34.0781 154.482 34.0781Q154.101 34.0781 153.71 33.9316Q153.319 33.7803 153.241 33.5605Q153.119 32.9209 153.119 32.418Q153.119 30.7822 153.022 28.7412Q152.939 26.9395 152.939 26.2217Q152.939 25.8604 153.3 25.6016Q153.661 25.3379 154.062 25.3379Q154.638 25.3379 154.867 25.6016Q155.102 25.8604 155.102 26.4219L155.102 30.0205ZM157.639 27.0811Q157.36 27.042 157.189 26.8418Q157.019 26.6416 157.019 26.3584Q157.019 26.2217 157.087 26.0605Q157.16 25.8994 157.302 25.7822Q157.561 25.5576 158 25.3623Q158.459 25.1816 158.659 24.9229Q158.859 24.6592 158.859 23.9414Q158.859 23.6387 158.83 23.4189Q158.801 23.1992 158.801 23.082Q158.801 22.6377 159.118 22.418Q159.44 22.1982 159.86 22.1982Q160.378 22.1982 160.568 22.4619Q160.759 22.7207 160.759 23.4189Q160.759 24.0977 160.7 24.5908Q160.642 25.0791 160.441 25.46Q160.72 25.46 161.359 25.4209Q162.238 25.3818 162.58 25.3818Q162.922 25.3818 163.181 25.5527Q163.439 25.7188 163.439 26.0215Q163.439 26.4414 163.259 26.6416Q163.078 26.8418 162.741 26.9004Q161.921 27.1201 160.422 27.1592Q160.378 27.9404 160.378 28.8584Q160.378 30.4014 160.559 31.2217Q160.681 31.8613 160.969 32.1543Q161.262 32.4424 161.838 32.4424Q162.141 32.4424 162.331 32.3643Q162.521 32.2812 162.541 32.2617Q162.78 32.1201 162.98 32.1201Q163.259 32.1201 163.391 32.3008Q163.522 32.4814 163.522 32.7793Q163.522 33.3408 162.922 33.7119Q162.321 34.0781 161.379 34.0781Q160.319 34.0781 159.587 33.4482Q158.859 32.8184 158.718 31.7783Q158.522 30.8408 158.522 29.1416Q158.522 28.3994 158.601 27.1592L157.639 27.0811ZM164.919 29.4199Q164.919 28.1992 165.456 27.3887Q165.998 26.5781 166.96 25.8604Q167.239 25.6602 167.898 25.5137Q168.562 25.3623 169.06 25.3623Q169.661 25.3623 170.33 25.6113Q170.998 25.8604 171.418 26.1777Q172.161 26.7197 172.439 27.4326Q172.722 28.1406 172.722 29.1221Q172.722 29.542 172.248 29.9326Q171.78 30.3184 171.238 30.3184L170.481 30.2988Q169.9 30.2988 168.821 30.3379L168.401 30.3623Q167.961 30.4014 167.742 30.4014Q167.419 30.4014 166.858 30.3184Q166.941 31.2607 167.561 31.793Q168.181 32.3203 168.899 32.3203Q170.159 32.3203 170.662 31.8223Q171.081 31.5195 171.218 31.4414Q171.36 31.3584 171.658 31.3584Q171.98 31.3584 172.219 31.6611Q172.458 31.959 172.458 32.2617Q172.458 32.5986 172.048 32.9502Q171.638 33.3018 170.94 33.6777Q170.559 33.8389 169.9 33.9609Q169.241 34.0781 168.801 34.0781Q168.098 34.0781 167.239 33.668Q166.379 33.2578 165.959 32.7598Q165.539 32.2617 165.227 31.3438Q164.919 30.4209 164.919 29.4199ZM168.899 28.8779Q170.32 28.8779 170.979 28.7803Q170.94 28.1992 170.618 27.833Q170.3 27.4619 169.739 27.1982Q169.558 27.1201 169.416 27.0811Q169.28 27.042 169.099 27.042Q168.181 27.042 167.551 27.54Q166.921 28.0381 166.799 28.8193Q167.8 28.8779 168.899 28.8779Z" fill="rgb(255,255,255)" fill-rule="nonzero" />
	<g id="zub_noy5haa5lr4p 1" clip-path="url(#clipPath_3)" customFrame="url(#clipPath_3)">
		<rect id="zub_noy5haa5lr4p 1" width="81.000000" height="84.000000" x="0.000000" y="0.000000" />
		<path id="Форма 1" d="M81.6779 20.6879C79.9684 10.1813 72.4472 2.12621 62.5328 0.375228C56.8919 -0.675428 51.5928 0.550392 47.1484 3.17703C43.2169 5.45351 38.6016 5.45351 34.6699 3.17703C30.2256 0.550392 24.9265 -0.675428 19.2856 0.375228C9.54214 2.12638 1.84995 10.1813 0.311517 20.6879C-1.05593 29.6184 2.19178 38.0237 7.83271 43.277C10.9096 46.2538 12.7898 50.4564 12.7898 55.0093C12.7898 63.9399 14.6701 71.995 17.918 78.8243C22.0205 87.2295 34.157 84.6029 34.8408 74.9718L35.3536 66.2164C35.5246 62.7143 36.0374 59.3871 36.721 55.885C37.0629 54.309 38.0885 52.9082 39.4561 52.5579C42.0202 51.6824 44.4132 53.2584 44.926 55.7098C45.6098 59.212 46.1227 62.5391 46.4645 66.2164L46.9773 75.147C47.6611 84.6029 59.6266 87.4047 63.9001 78.9994C67.3188 72.3453 69.1992 63.9401 69.1992 55.0095C69.1992 50.4567 71.0795 46.2541 74.1564 43.2771C79.9686 37.8485 83.0455 29.6184 81.6779 20.6879Z" fill="rgb(242,242,242)" fill-rule="nonzero" />
		<path id="Форма 2" d="M6.89301 23.4899C6.7241 23.4899 6.7241 23.4899 6.55535 23.4899C5.71114 23.3147 5.03568 22.4393 5.20458 21.5638C6.55535 13.3338 12.2964 7.02994 19.8948 5.62897C22.7653 5.10365 25.6359 5.27881 28.5063 6.32945C29.3505 6.67961 29.8571 7.55526 29.5194 8.6059C29.1818 9.48138 28.3374 10.0067 27.3243 9.65654C24.9604 8.78106 22.7653 8.6059 20.4014 9.13122C14.1537 10.1819 9.42596 15.2599 8.41284 22.0891C8.58159 22.7896 7.73722 23.4899 6.89301 23.4899Z" fill="rgb(255,255,255)" fill-rule="nonzero" />
	</g>
	<path id="" d="M102.02 68.2256Q100.225 68.2256 99.3843 67.125Q98.5469 66.0244 98.5469 63.8711Q98.5469 61.7554 99.4219 60.5933Q100.297 59.4312 102.02 59.4312Q102.97 59.4312 103.493 59.5781Q104.019 59.7251 104.511 60.1045L104.204 61.8545L103.978 61.9536Q103.657 61.6289 103.277 61.4956Q102.901 61.3623 102.228 61.3623Q101.319 61.3623 100.939 61.9434Q100.563 62.5244 100.563 63.8711Q100.563 64.835 100.717 65.3408Q100.871 65.8433 101.268 66.0552Q101.667 66.2637 102.437 66.2637Q103.165 66.2637 103.599 66.1235Q104.033 65.9834 104.371 65.6621L104.607 65.7749L104.173 67.4976Q103.629 67.9316 103.202 68.0786Q102.775 68.2256 102.02 68.2256ZM105.755 65.9014L105.755 58.8296L105.615 56.7993L107.857 56.7993L107.717 58.8296L107.717 65.9014L107.857 68L105.615 68L105.755 65.9014ZM110.502 58.8296Q109.969 58.8296 109.597 58.5288Q109.228 58.228 109.228 57.7529Q109.228 57.2607 109.597 56.96Q109.969 56.6592 110.502 56.6592Q111.036 56.6592 111.405 56.96Q111.777 57.2607 111.777 57.7529Q111.777 58.228 111.405 58.5288Q111.036 58.8296 110.502 58.8296ZM109.508 65.9014L109.508 61.6289L109.368 59.5986L111.606 59.5986L111.466 61.6289L111.466 65.9014L111.606 68L109.368 68L109.508 65.9014ZM117.696 65.9014L117.696 62.3022Q117.696 61.8408 117.437 61.5674Q117.18 61.2939 116.746 61.2939Q115.864 61.2939 115.249 62.2476L115.249 65.9014L115.389 68L113.147 68L113.287 65.9014L113.287 61.6289L113.147 59.5986L114.969 59.5986L115.249 60.6206Q115.991 59.5029 117.543 59.5029Q118.524 59.5029 119.091 60.1182Q119.658 60.7334 119.658 61.9229L119.658 65.9014L119.798 68L117.56 68L117.696 65.9014ZM122.346 58.8296Q121.813 58.8296 121.441 58.5288Q121.072 58.228 121.072 57.7529Q121.072 57.2607 121.441 56.96Q121.813 56.6592 122.346 56.6592Q122.88 56.6592 123.249 56.96Q123.621 57.2607 123.621 57.7529Q123.621 58.228 123.249 58.5288Q122.88 58.8296 122.346 58.8296ZM121.352 65.9014L121.352 61.6289L121.212 59.5986L123.45 59.5986L123.31 61.6289L123.31 65.9014L123.45 68L121.212 68L121.352 65.9014ZM128.242 68.2256Q126.447 68.2256 125.606 67.125Q124.769 66.0244 124.769 63.8711Q124.769 61.7554 125.644 60.5933Q126.519 59.4312 128.242 59.4312Q129.192 59.4312 129.715 59.5781Q130.241 59.7251 130.733 60.1045L130.426 61.8545L130.2 61.9536Q129.879 61.6289 129.499 61.4956Q129.123 61.3623 128.45 61.3623Q127.541 61.3623 127.161 61.9434Q126.785 62.5244 126.785 63.8711Q126.785 64.835 126.939 65.3408Q127.093 65.8433 127.49 66.0552Q127.889 66.2637 128.659 66.2637Q129.387 66.2637 129.821 66.1235Q130.255 65.9834 130.593 65.6621L130.829 65.7749L130.395 67.4976Q129.851 67.9316 129.424 68.0786Q128.997 68.2256 128.242 68.2256Z" fill="rgb(141,240,228)" fill-rule="nonzero" />
</svg>
